<svg version="1.1" id="Layer_1" xmlns="http://www.w3.org/2000/svg" xmlns:xlink="http://www.w3.org/1999/xlink" x="0px" y="0px"
	 width="100%" viewBox="0 0 1024 1024" xml:space="preserve">
<path fill="#273F4F" opacity="1.000000" stroke="none" 
	d="
M399.132935,676.364258 
	C376.851837,683.757935 354.541931,684.994751 331.799744,681.448242 
	C310.097565,678.063965 289.901459,671.006897 272.007629,658.035278 
	C249.248474,641.536743 236.620377,618.465088 230.801102,591.668579 
	C221.046280,546.749817 232.285904,506.365295 259.112579,469.783813 
	C281.510498,439.241547 310.536377,417.002777 344.887634,401.445587 
	C346.198700,400.851807 347.879181,400.761566 349.200073,398.058929 
	C328.949219,395.947845 309.186188,395.426849 289.328217,397.200104 
	C269.072174,399.008942 250.798721,405.975006 234.357758,418.361145 
	C235.857574,410.282043 239.920044,403.861328 243.993027,397.485870 
	C258.726898,374.422821 279.336365,360.261292 306.760620,356.941711 
	C320.481384,355.280853 334.241760,355.156982 348.081665,356.389099 
	C359.156952,357.375061 370.226471,358.405518 381.299377,359.420837 
	C398.003967,360.952545 414.715271,362.982239 431.527344,362.573822 
	C455.735199,361.985718 479.612244,359.316925 502.138245,349.494141 
	C503.488495,348.905365 504.913971,348.489105 506.207214,348.027283 
	C507.843201,349.565216 507.125183,350.958649 506.490448,352.294037 
	C500.328918,365.256836 493.053925,377.540344 484.846008,389.337280 
	C481.496552,394.151367 477.204285,395.706360 471.916687,396.353485 
	C430.348511,401.440857 390.195038,411.795441 352.819092,430.946472 
	C320.200256,447.659973 293.600372,471.123260 277.566681,504.888092 
	C269.269257,522.361328 266.695068,540.890564 268.088837,560.221619 
	C269.294128,576.938171 273.801361,592.242920 284.060516,605.603394 
	C298.427338,624.313171 318.038177,634.683167 340.506927,639.962585 
	C372.888245,647.571045 404.806793,645.530518 436.096130,634.172302 
	C441.920563,632.057983 447.207916,628.904297 452.417694,625.601379 
	C453.777466,624.739258 455.060303,623.449524 457.251587,624.170654 
	C458.291992,627.207642 456.091309,629.389099 454.718903,631.626587 
	C441.600769,653.012878 423.123322,667.822510 399.132935,676.364258 
z"/>
<path fill="#273F4F" opacity="1.000000" stroke="none" 
	d="
M810.633057,402.382965 
	C823.806519,398.722198 836.550415,398.084991 849.270142,402.622162 
	C865.252625,408.323120 875.856140,423.449707 876.395996,440.371796 
	C877.377441,471.136322 861.405945,492.359711 837.750000,508.938721 
	C813.788025,525.732239 786.457031,534.751587 758.227661,541.242798 
	C735.704224,546.421997 712.845154,547.745667 689.839539,546.081787 
	C686.045288,545.807373 684.884033,546.930908 684.289795,550.380920 
	C681.899170,564.262024 677.774719,577.525085 669.683167,589.296204 
	C657.308533,607.298035 639.122742,613.980103 617.881592,608.544983 
	C605.977356,605.499023 595.590820,599.905884 586.826416,591.311218 
	C585.883850,590.386902 585.079163,589.308472 584.305176,588.233459 
	C584.051941,587.881714 584.099060,587.313782 583.886658,586.209900 
	C589.867737,585.685181 595.728882,585.318481 601.552429,584.632874 
	C619.662415,582.500549 635.682678,575.879761 648.015381,561.978577 
	C659.285828,549.274780 660.866150,533.953674 659.275146,517.894958 
	C658.225891,507.304840 655.994263,496.929810 653.743652,486.546570 
	C653.225952,484.158600 651.867188,480.803406 654.928833,479.269501 
	C658.048096,477.706696 659.697510,480.893311 661.352905,482.764130 
	C668.665527,491.028229 677.384399,496.553223 688.493164,498.286407 
	C693.257080,499.029633 696.806458,498.408112 699.729736,494.183777 
	C703.420227,488.850861 707.428955,483.712097 711.615417,478.755676 
	C715.964111,473.607269 717.561096,467.624359 717.570618,461.175659 
	C717.646179,410.015289 717.647278,358.854797 717.625916,307.694336 
	C717.622986,300.673218 715.061096,294.670685 709.633423,290.090759 
	C706.184387,287.180389 706.370361,284.995728 710.187988,282.411499 
	C722.739563,273.915131 735.130493,265.181610 747.603760,256.569122 
	C749.068909,255.557510 750.515015,254.170776 752.649597,255.275436 
	C753.820801,257.408234 753.328125,259.787201 753.326965,262.069794 
	C753.299072,315.729889 753.233398,369.390015 753.174438,423.050110 
	C753.172791,424.549927 753.077820,426.056549 753.189209,427.547852 
	C753.332520,429.466248 752.374695,432.010803 754.446777,433.063568 
	C756.790710,434.254456 758.342896,431.843628 759.970703,430.597351 
	C775.374451,418.803406 791.284851,407.937195 810.633057,402.382965 
M714.067139,498.640381 
	C720.971130,501.323395 728.166687,499.946106 735.055664,499.317200 
	C756.242737,497.382996 777.029297,493.056915 797.350220,486.652802 
	C813.717529,481.494690 829.840942,475.758911 844.030212,465.763885 
	C851.382324,460.585083 851.424500,456.458374 844.145081,451.034729 
	C831.653870,441.727997 817.234070,441.020203 802.667053,442.899048 
	C782.411255,445.511627 764.701904,454.683899 748.129333,466.132263 
	C735.221252,475.049225 723.325317,485.129578 714.067139,498.640381 
z"/>
<path fill="#273F4F" opacity="1.000000" stroke="none" 
	d="
M662.632812,423.552673 
	C668.221191,422.504547 673.371460,421.489655 679.046753,420.371338 
	C679.591431,426.980286 676.892212,432.334961 676.015503,437.955780 
	C675.096802,443.845459 673.337769,449.598969 672.158997,455.454834 
	C671.300659,459.718475 669.144714,461.165558 664.623230,461.512756 
	C624.619568,464.584259 585.843140,472.586700 551.051758,493.719849 
	C531.350708,505.686829 515.891296,522.079956 508.758911,544.487000 
	C499.348846,574.049316 510.305115,604.781982 535.945068,623.378601 
	C553.552490,636.149353 573.528931,641.888550 595.036194,643.802917 
	C614.629700,645.546875 633.854919,644.226379 652.908020,639.671082 
	C663.848022,637.055603 673.961121,632.405762 683.582764,626.637146 
	C685.086182,625.735901 686.440613,624.171936 688.604431,625.307739 
	C689.833130,627.554260 687.997681,629.043091 687.067749,630.630310 
	C670.963013,658.118958 647.030396,674.607910 615.951904,680.881287 
	C583.916931,687.347778 552.728821,684.943359 523.035828,670.701477 
	C493.103424,656.344727 476.270630,632.253357 471.575836,599.463013 
	C463.510651,543.132751 496.669922,485.286346 544.819641,462.405792 
	C547.505310,461.129578 550.126709,459.718140 552.806702,457.690002 
	C538.607788,452.607849 523.999878,449.458984 509.018250,449.558746 
	C493.860840,449.659637 479.573883,453.979614 466.771942,462.700043 
	C464.957550,460.244690 465.480682,458.299835 466.309357,456.533905 
	C476.092438,435.685394 489.603027,418.841949 513.413330,413.283325 
	C527.156494,410.074921 540.853638,411.558167 554.476013,414.110809 
	C575.674988,418.083160 596.760925,423.009308 618.319824,424.385223 
	C632.902039,425.315887 647.603516,425.603699 662.632812,423.552673 
z"/>
<path fill="#FE7743" opacity="1.000000" stroke="none" 
	d="
M395.927307,490.085205 
	C397.136932,491.263550 398.118896,492.167664 399.041473,493.128754 
	C403.146179,497.404877 403.311798,499.557037 399.176605,503.699249 
	C389.878387,513.013245 380.455658,522.203918 371.017303,531.376465 
	C368.124146,534.188171 364.942993,534.030212 362.169556,531.219849 
	C353.041718,521.970398 343.989807,512.645691 334.953186,503.306885 
	C331.870972,500.121552 331.883057,496.795441 335.025940,493.633789 
	C343.951172,484.655273 352.840790,475.639435 361.890472,466.787537 
	C365.381653,463.372681 369.000397,463.692902 372.845093,467.426086 
	C380.495178,474.854218 388.067719,482.362183 395.927307,490.085205 
z"/>
<path fill="#FE7743" opacity="1.000000" stroke="none" 
	d="
M400.138336,741.172668 
	C402.018158,744.589417 400.555267,746.961243 398.480957,749.089111 
	C389.881073,757.910767 381.281799,766.733765 372.598572,775.473083 
	C368.566376,779.531372 366.007843,779.465210 362.007996,775.398987 
	C353.601471,766.853149 345.208771,758.293213 336.873352,749.678223 
	C331.540466,744.166443 331.605133,741.590637 337.116486,736.340576 
	C345.432892,728.418213 353.870819,720.626343 361.582489,712.087280 
	C364.956055,708.351807 368.631287,708.212524 371.963867,711.647949 
	C381.351105,721.324768 390.631775,731.104919 400.138336,741.172668 
z"/>
<path fill="#FE7743" opacity="1.000000" stroke="none" 
	d="
M383.714783,595.715027 
	C379.566895,599.834534 375.708344,603.744629 371.760681,607.562683 
	C367.672668,611.516541 364.309448,611.634766 360.640625,607.534058 
	C352.420563,598.346375 343.600555,589.752686 334.961334,580.976868 
	C330.937439,576.889404 330.928375,574.302429 334.902985,570.310669 
	C343.123016,562.055359 351.399597,553.854980 359.741089,545.722473 
	C364.172058,541.402588 366.739136,541.385742 371.259369,545.663879 
	C379.841644,553.786499 388.369537,561.968506 396.815033,570.233154 
	C401.811981,575.123047 401.691223,577.893372 396.724945,582.801758 
	C392.462891,587.014099 388.217621,591.243408 383.714783,595.715027 
z"/>
</svg>